<?xml version="1.0" encoding="UTF-8" standalone="no"?>
<svg width="147px" height="32px" viewBox="0 0 147 32" version="1.1" xmlns="http://www.w3.org/2000/svg">
    <title>Deploy to Render</title>
    <rect fill="#4f46e5" x="0" y="0" width="147" height="32" rx="4"></rect>
    <g transform="translate(10.000000, 8.000000)" fill="#FFFFFF">
        <path d="M14.819,3.216 L9.103,0.25 C8.464,-0.082 7.536,-0.081 6.898,0.25 L1.181,3.216 C0.496,3.571 0,4.365 0,5.102 L0,11.035 C0,11.774 0.497,12.566 1.181,12.921 L4.039,14.404 C4.529,14.656 5.134,14.467 5.388,13.978 C5.642,13.487 5.451,12.884 4.961,12.629 L2.106,11.148 C2.068,11.124 2.008,11.039 2,11.035 L1.996,5.143 C2.008,5.098 2.068,5.013 2.103,4.991 L7.816,2.026 C7.897,1.991 8.106,1.992 8.181,2.025 L13.894,4.989 C13.932,5.013 13.992,5.098 14,5.102 L14.003,10.995 C13.992,11.039 13.932,11.124 13.898,11.146 L11.039,12.629 C10.549,12.884 10.358,13.487 10.612,13.978 C10.79,14.32 11.14,14.517 11.501,14.517 C11.656,14.517 11.814,14.481 11.961,14.404 L14.818,12.921 C15.503,12.566 16,11.774 16,11.035 L16,5.102 C16,4.365 15.504,3.571 14.819,3.216"></path>
        <path d="M11.707,9.707 C12.098,9.316 12.098,8.684 11.707,8.293 L8.708,5.294 C8.616,5.201 8.505,5.128 8.382,5.077 C8.138,4.976 7.862,4.976 7.618,5.077 C7.495,5.128 7.385,5.201 7.292,5.294 L4.293,8.293 C3.902,8.684 3.902,9.316 4.293,9.707 C4.488,9.902 4.744,10 5,10 C5.256,10 5.512,9.902 5.707,9.707 L7,8.414 L7,15 C7,15.553 7.447,16 8,16 C8.553,16 9,15.553 9,15 L9,8.414 L10.293,9.707 C10.488,9.902 10.744,10 11,10 C11.256,10 11.512,9.902 11.707,9.707"></path>
    </g>
    <text x="40" y="21" font-family="Arial, sans-serif" font-size="12" fill="#ffffff">Deploy to Heroku</text>
</svg>